<?xml version="1.0" standalone="no"?>
<!DOCTYPE svg PUBLIC "-//W3C//DTD SVG 20010904//EN"
 "http://www.w3.org/TR/2001/REC-SVG-20010904/DTD/svg10.dtd">
<svg version="1.0" xmlns="http://www.w3.org/2000/svg"
 width="268.000000pt" height="268.000000pt" viewBox="0 0 268.000000 268.000000"
 preserveAspectRatio="xMidYMid meet">

<g transform="translate(0.000000,268.000000) scale(0.100000,-0.100000)"
fill="#000000" stroke="none">
<path d="M1131 2619 c-30 -5 -101 -23 -159 -40 -466 -136 -811 -523 -898
-1008 -17 -98 -17 -324 0 -422 110 -613 634 -1059 1246 -1059 429 0 817 207
1067 571 131 190 207 448 207 699 0 345 -129 657 -373 901 -169 168 -342 267
-581 331 -103 28 -132 31 -285 34 -93 1 -194 -2 -224 -7z m419 -159 c321 -69
589 -271 758 -572 74 -130 132 -360 132 -523 0 -152 -47 -349 -115 -485 -39
-79 -61 -100 -105 -100 -55 0 -77 31 -109 151 -16 57 -38 138 -50 179 -11 41
-68 248 -125 460 -58 212 -114 414 -124 450 -11 36 -25 84 -31 108 l-12 42
-159 0 c-88 0 -160 -2 -160 -5 0 -3 19 -22 42 -43 54 -49 113 -140 133 -207
21 -72 19 -177 -4 -250 -16 -49 -92 -219 -206 -458 l-18 -39 30 -30 c31 -30
31 -30 42 -9 11 20 18 21 186 21 95 0 176 -4 179 -8 3 -5 19 -62 37 -128 17
-65 42 -155 54 -199 81 -295 86 -316 76 -329 -11 -13 -135 -88 -200 -121 -167
-84 -431 -124 -636 -97 -153 21 -329 88 -468 180 -82 54 -179 140 -171 153 3
5 59 9 124 9 l120 0 2 318 3 317 41 0 c40 0 42 -2 185 -168 79 -93 163 -193
187 -223 l44 -54 -35 -63 c-20 -37 -51 -75 -77 -95 l-43 -33 69 3 69 3 30 57
c17 32 35 58 40 57 6 0 33 -27 60 -59 l50 -59 158 -1 c87 0 157 4 155 9 -1 5
-64 73 -139 152 -259 274 -386 417 -393 442 -8 34 7 71 39 94 164 114 240 247
238 418 -2 171 -94 318 -251 399 -63 33 -160 46 -343 46 -163 0 -178 2 -203
21 -38 30 -33 53 22 92 152 110 345 180 557 201 71 7 228 -5 315 -24z m-1009
-489 c18 -22 19 -53 19 -596 0 -671 9 -620 -106 -620 l-68 0 -33 50 c-91 138
-153 366 -153 562 0 222 69 455 178 602 24 32 26 33 85 29 47 -4 64 -9 78 -27z
m524 -12 c54 -15 109 -61 143 -117 24 -41 27 -57 27 -133 0 -81 -2 -89 -33
-135 -41 -60 -94 -99 -153 -114 -24 -6 -96 -10 -159 -8 l-115 3 -3 258 -2 257
127 0 c71 0 146 -5 168 -11z m665 -435 c11 -44 26 -100 35 -123 25 -73 28 -71
-95 -71 -60 0 -110 2 -110 4 0 2 21 48 46 102 26 55 55 119 65 143 13 28 23
41 29 35 5 -5 19 -46 30 -90z"/>
<path d="M1276 2349 c-17 -13 -26 -30 -26 -49 0 -29 38 -70 65 -70 24 0 65 41
65 66 0 27 -40 74 -63 74 -8 0 -26 -9 -41 -21z"/>
<path d="M2187 1422 c-60 -66 2 -175 81 -143 29 12 62 57 62 84 0 9 -12 29
-26 46 -20 25 -34 31 -63 31 -24 0 -44 -7 -54 -18z"/>
<path d="M1275 485 c-30 -29 -32 -58 -5 -85 61 -61 149 25 90 88 -27 29 -55
28 -85 -3z"/>
<path d="M325 1415 c-42 -41 -30 -102 26 -131 25 -13 36 -13 60 -4 60 25 76
90 33 134 -35 35 -86 35 -119 1z"/>
</g>
</svg>
